<svg viewBox="81.686 13.823 86.02 78.021" width="86.02" height="78.021">
  <g transform="matrix(1, 0, 0, 1, -126.480003, 11.76)">
    <linearGradient id="SVGID_1_" gradientUnits="userSpaceOnUse" x1="236.5762" y1="169.8906" x2="252.4729" y2="141.1055" gradientTransform="matrix(1 0 0 1 -21 -121.5)">
      <stop offset="0" style="stop-color:#FFFFFF"></stop>
      <stop offset="0.0056" style="stop-color:#94CBEE"></stop>
      <stop offset="0.2111" style="stop-color:#76B7E5"></stop>
      <stop offset="0.6556" style="stop-color:#008ECF"></stop>
      <stop offset="0.8539" style="stop-color:#007FC5"></stop>
    </linearGradient>
    <path fill="url(#SVGID_1_)" d="M246.235,35.751c-0.233-1.233-0.429-2.459-0.587-3.661c-8.091-7.538-19.813-13.804-28.996-16.517
					c-2.645-0.78-5.909-1.285-7.639,0.642c-1.397,1.557-0.975,4.494,0.6,8.081c5.427,12.372,15.466,25.525,25.344,33.211
					c0-0.002,0-0.003,0-0.003C232.79,47.249,236.499,38.274,246.235,35.751z"></path>
    <linearGradient id="SVGID_2_" gradientUnits="userSpaceOnUse" x1="254.3887" y1="160.9219" x2="274.7715" y2="181.3047" gradientTransform="matrix(1 0 0 1 -21 -121.5)">
      <stop offset="0" style="stop-color:#007FC5"></stop>
      <stop offset="0.0873" style="stop-color:#0088B2"></stop>
      <stop offset="0.2517" style="stop-color:#00968D"></stop>
      <stop offset="0.3859" style="stop-color:#009F6C"></stop>
      <stop offset="0.4832" style="stop-color:#00A555"></stop>
      <stop offset="0.5337" style="stop-color:#00A94F"></stop>
    </linearGradient>
    <path fill="url(#SVGID_2_)" d="M253.156,55.715c-3.012-5.187-5.569-12.761-6.921-19.964
					c-9.736,2.523-13.445,11.498-11.278,21.753c0,0,0,0.001,0,0.003c0.003,0.006,0.003,0.003,0.002,0
					c1.292,1.006,2.733,1.988,3.864,2.576c5.238,2.723,8.701,2.186,11.688,0.499c1.192-0.676,2.703-2.399,3.468-3.502
					C253.696,56.629,253.422,56.174,253.156,55.715z"></path>
    <linearGradient id="SVGID_3_" gradientUnits="userSpaceOnUse" x1="280.2539" y1="201.6445" x2="261.9498" y2="173.4587" gradientTransform="matrix(1 0 0 1 -21 -121.5)">
      <stop offset="0.0955" style="stop-color:#00A94F"></stop>
      <stop offset="0.2436" style="stop-color:#00B156"></stop>
      <stop offset="0.4855" style="stop-color:#61BD65"></stop>
      <stop offset="0.7009" style="stop-color:#86C772"></stop>
      <stop offset="0.8798" style="stop-color:#9ACE7B"></stop>
      <stop offset="1" style="stop-color:#A1D07E"></stop>
    </linearGradient>
    <path fill="url(#SVGID_3_)" d="M250.511,60.582c-2.986,1.687-6.449,2.224-11.688-0.499c-1.131-0.588-2.572-1.57-3.864-2.576
					c0,0.003,0.001,0.005,0,0.002c3.996,10.235,10.033,17.533,18.036,21.864c1.431,0.773,2.768,0.978,4.177,0.305
					c0.942-0.449,1.471-1.501,1.731-2.117c1.263-2.99,1.864-6.584,2.155-11.471c-2.702-2.763-5.078-5.797-7.08-9.01
					C253.214,58.183,251.703,59.906,250.511,60.582z"></path>
    <linearGradient id="SVGID_4_" gradientUnits="userSpaceOnUse" x1="299.1016" y1="198.2129" x2="295.4453" y2="165.6161" gradientTransform="matrix(1 0 0 1 -21 -121.5)">
      <stop offset="0" style="stop-color:#F4A656"></stop>
      <stop offset="0.4719" style="stop-color:#FCCA25"></stop>
      <stop offset="0.4944" style="stop-color:#FCCA25"></stop>
    </linearGradient>
    <path fill="url(#SVGID_4_)" d="M290.086,43.759c-0.814,2.26-1.568,3.901-3.148,6.544c-2.378,3.978-6.64,6.347-11.544,6.886
					c-4.461,0.489-10.494-0.339-15.355-2.243c0.746,3.589,1.105,7.321,1.021,11.145c3.464,3.398,7.521,6.388,12.081,8.662
					c0.794,0.396,1.795,0.669,2.665,0.669c1.351,0,2.628-0.512,3.769-1.424C287.681,67.517,292.757,55.912,290.086,43.759z"></path>
    <linearGradient id="SVGID_5_" gradientUnits="userSpaceOnUse" x1="273.0928" y1="165.3398" x2="311.6514" y2="165.3398" gradientTransform="matrix(1 0 0 1 -21.5659 -121.0361)">
      <stop offset="0.2921" style="stop-color:#F4A656"></stop>
      <stop offset="1" style="stop-color:#E95A2F"></stop>
    </linearGradient>
    <path fill="url(#SVGID_5_)" d="M251.527,33.93c3.61,6.164,6.591,13.283,8.02,18.891c0.179,0.702,0.344,1.411,0.491,2.125
					c4.861,1.904,10.895,2.732,15.355,2.243c4.904-0.539,9.166-2.908,11.544-6.886c1.58-2.643,2.334-4.284,3.148-6.544
					C282.312,29.362,262.418,29.475,251.527,33.93z"></path>
    <linearGradient id="SVGID_6_" gradientUnits="userSpaceOnUse" x1="271.2686" y1="143.9473" x2="315.6193" y2="143.9473" gradientTransform="matrix(1 0 0 1 -21.5659 -121.0361)">
      <stop offset="0.0169" style="stop-color:#F4A656"></stop>
      <stop offset="0.5393" style="stop-color:#E95A2F"></stop>
    </linearGradient>
    <path fill="url(#SVGID_6_)" d="M291.098,7.777c-0.778-1.644-2.112-3.527-3.626-4.447c-2.935-1.781-6.637-1.628-10.271,0.106
					c-11.61,5.538-23.772,15.465-27.497,27.548c0.621,0.949,1.23,1.934,1.824,2.945c10.891-4.455,30.784-4.568,38.559,9.829
					C293.861,33.279,296.553,19.308,291.098,7.777z"></path>
    <linearGradient id="SVGID_7_" gradientUnits="userSpaceOnUse" x1="273.3965" y1="328.332" x2="262.5037" y2="332.733" gradientTransform="matrix(1 0 0 1 -14.3418 -282.9668)">
      <stop offset="0.0449" style="stop-color:#3E5BA6"></stop>
      <stop offset="0.4719" style="stop-color:#6D7CBC"></stop>
      <stop offset="0.532" style="stop-color:#6373B6"></stop>
      <stop offset="0.6585" style="stop-color:#4F66AD"></stop>
      <stop offset="0.7748" style="stop-color:#435EA7"></stop>
      <stop offset="0.8708" style="stop-color:#3E5BA6"></stop>
      <stop offset="1" style="stop-color:#3E5BA6"></stop>
    </linearGradient>
    <path fill-rule="evenodd" clip-rule="evenodd" fill="url(#SVGID_7_)" d="M245.589,31.621c-0.155-1.278,0.161-2.434,1.006-2.757
					c0.802-0.309,1.811,0.206,2.495,1.202c4.696,6.841,8.719,15.925,10.457,22.754c1.077,4.232,1.612,8.684,1.512,13.27
					c-3.081-3.152-5.74-6.655-7.902-10.375C249.562,49.521,246.611,39.924,245.589,31.621z"></path>
  </g>
</svg>